<?xml version="1.0" encoding="utf-8"?>
<!-- Generator: Adobe Illustrator 12.0.0, SVG Export Plug-In . SVG Version: 6.00 Build 51448)  -->
<!DOCTYPE svg PUBLIC "-//W3C//DTD SVG 1.1//EN" "http://www.w3.org/Graphics/SVG/1.1/DTD/svg11.dtd" [
	<!ENTITY ns_svg "http://www.w3.org/2000/svg">
	<!ENTITY ns_xlink "http://www.w3.org/1999/xlink">
]>
<svg  version="1.1" id="レイヤー_1" xmlns="&ns_svg;" xmlns:xlink="&ns_xlink;" width="435.536" height="74.905"
	 viewBox="0 0 435.536 74.905" overflow="visible" enable-background="new 0 0 435.536 74.905" xml:space="preserve">
<path fill="#00A0E9" d="M0,37.453c0,6.637,1.717,12.866,4.759,18.263V19.193C1.717,24.594,0,30.825,0,37.453"/>
<path fill="#00A0E9" d="M70.137,19.193V4.775H55.716C61.75,8.146,66.761,13.146,70.137,19.193"/>
<path fill="#00A0E9" d="M37.452,0C30.821,0,24.59,1.738,19.179,4.775h36.538C50.302,1.738,44.093,0,37.452,0"/>
<path fill="#00A0E9" d="M37.452,74.905c6.641,0,12.85-1.731,18.265-4.756H19.179C24.59,73.174,30.821,74.905,37.452,74.905"/>
<path fill="#00A0E9" d="M70.137,19.193v36.521c3.034-5.396,4.753-11.625,4.753-18.263C74.89,30.824,73.171,24.593,70.137,19.193"/>
<path fill="#00A0E9" d="M55.716,70.149h14.421V55.715C66.76,61.762,61.75,66.771,55.716,70.149"/>
<path fill="#00A0E9" d="M19.179,4.775H4.759v14.418C8.132,13.147,13.137,8.146,19.179,4.775"/>
<path fill="#00A0E9" d="M4.759,55.716V70.15h14.42C13.137,66.771,8.132,61.763,4.759,55.716"/>
<polygon points="259.106,30.233 259.106,28.475 268.938,28.475 268.938,30.233 264.938,30.233 264.938,46.42 263.11,46.42 
	263.11,30.233 "/>
<polygon points="272.54,28.475 282.823,28.475 282.823,30.233 274.336,30.233 274.336,35.854 282.75,35.854 282.75,37.613 
	274.336,37.613 274.336,44.662 282.75,44.662 282.75,46.42 272.54,46.42 "/>
<path d="M303.629,31.806l-1.414,1.086c-0.781-1.018-1.715-1.787-2.811-2.312c-1.094-0.525-2.293-0.785-3.607-0.785
	c-1.432,0-2.758,0.34-3.977,1.03c-1.217,0.686-2.166,1.609-2.836,2.767c-0.67,1.161-1.006,2.464-1.006,3.911
	c0,2.186,0.754,4.012,2.25,5.475c1.504,1.466,3.393,2.198,5.68,2.198c2.51,0,4.615-0.984,6.307-2.953l1.414,1.07
	c-0.895,1.142-2.012,2.021-3.348,2.644c-1.336,0.623-2.83,0.937-4.484,0.937c-3.137,0-5.615-1.047-7.426-3.139
	c-1.523-1.763-2.281-3.895-2.281-6.393c0-2.624,0.92-4.834,2.762-6.627c1.846-1.793,4.148-2.692,6.92-2.692
	c1.68,0,3.189,0.334,4.543,0.994C301.663,29.681,302.766,30.612,303.629,31.806"/>
<polygon points="308.206,28.475 309.999,28.475 309.999,36 319.131,36 319.131,28.475 320.926,28.475 320.926,46.42 319.131,46.42 
	319.131,37.758 309.999,37.758 309.999,46.42 308.206,46.42 "/>
<polygon points="326.307,46.42 326.307,28.475 326.698,28.475 338.639,42.232 338.639,28.475 340.403,28.475 340.403,46.42 
	340.002,46.42 328.161,32.831 328.161,46.42 "/>
<path d="M354.321,28.023c2.713,0,4.988,0.908,6.818,2.721c1.832,1.813,2.748,4.046,2.748,6.697c0,2.625-0.914,4.855-2.742,6.685
	c-1.824,1.829-4.051,2.746-6.674,2.746c-2.666,0-4.912-0.912-6.742-2.735c-1.83-1.817-2.75-4.025-2.75-6.611
	c0-1.725,0.418-3.323,1.25-4.793c0.836-1.469,1.973-2.626,3.414-3.456C351.081,28.439,352.643,28.023,354.321,28.023
	 M354.397,29.767c-1.326,0-2.582,0.347-3.777,1.04c-1.188,0.692-2.111,1.622-2.779,2.792c-0.672,1.174-1.004,2.48-1.004,3.92
	c0,2.131,0.738,3.936,2.219,5.403c1.477,1.469,3.252,2.203,5.342,2.203c1.389,0,2.678-0.335,3.865-1.011
	c1.188-0.677,2.111-1.601,2.771-2.772c0.67-1.173,1.002-2.474,1.002-3.904c0-1.429-0.332-2.716-1.002-3.869
	c-0.66-1.148-1.592-2.07-2.799-2.762C357.028,30.114,355.749,29.767,354.397,29.767"/>
<polygon points="368.485,28.475 370.28,28.475 370.28,44.686 377.184,44.686 377.184,46.42 368.485,46.42 "/>
<path d="M388.59,28.023c2.713,0,4.994,0.908,6.822,2.721c1.83,1.813,2.746,4.046,2.746,6.697c0,2.625-0.914,4.855-2.736,6.685
	c-1.828,1.829-4.057,2.746-6.687,2.746c-2.663,0-4.901-0.912-6.733-2.735c-1.83-1.817-2.75-4.025-2.75-6.611
	c0-1.725,0.42-3.323,1.256-4.793c0.822-1.469,1.969-2.626,3.404-3.456C385.35,28.439,386.913,28.023,388.59,28.023 M388.672,29.767
	c-1.332,0-2.586,0.347-3.779,1.04c-1.186,0.692-2.113,1.622-2.787,2.792c-0.666,1.174-1,2.48-1,3.92
	c0,2.131,0.742,3.936,2.219,5.403c1.477,1.469,3.26,2.203,5.348,2.203c1.387,0,2.68-0.335,3.865-1.011
	c1.186-0.677,2.111-1.601,2.771-2.772c0.666-1.173,0.998-2.474,0.998-3.904c0-1.429-0.332-2.716-0.998-3.869
	c-0.66-1.148-1.6-2.07-2.803-2.762C391.297,30.114,390.02,29.767,388.672,29.767"/>
<path d="M419.387,31.486l-1.389,1.321c-1.002-0.985-2.096-1.732-3.283-2.241c-1.195-0.508-2.359-0.761-3.482-0.761
	c-1.41,0-2.754,0.347-4.02,1.036c-1.279,0.691-2.264,1.629-2.963,2.811c-0.697,1.184-1.051,2.438-1.051,3.753
	c0,1.349,0.361,2.629,1.092,3.849c0.719,1.213,1.721,2.172,2.99,2.865c1.281,0.694,2.68,1.043,4.201,1.043
	c1.848,0,3.408-0.52,4.686-1.561c1.279-1.041,2.029-2.395,2.268-4.047h-5.721v-1.735h7.736c-0.02,2.774-0.844,4.978-2.473,6.604
	c-1.631,1.631-3.814,2.448-6.543,2.448c-3.318,0-5.943-1.131-7.881-3.394c-1.49-1.741-2.23-3.752-2.23-6.037
	c0-1.698,0.424-3.283,1.279-4.745c0.854-1.463,2.025-2.607,3.514-3.437c1.486-0.822,3.17-1.236,5.047-1.236
	c1.523,0,2.957,0.274,4.299,0.824C416.803,29.395,418.11,30.277,419.387,31.486"/>
<polygon points="422.286,28.475 424.358,28.475 428.95,35.875 433.467,28.475 435.536,28.475 429.85,37.843 429.85,46.42 
	428.081,46.42 428.081,37.843 "/>
<path d="M112.619,38.279c-0.459-0.699-1.138-1.279-2.021-1.758c0.474-0.411,0.838-0.853,1.084-1.325
	c0.305-0.586,0.453-1.24,0.453-1.939c0-1.079-0.331-2.035-0.991-2.835c-0.653-0.801-1.545-1.346-2.635-1.636
	c-0.781-0.216-1.955-0.316-3.554-0.316h-3.028v17.979h5.17c1.428-0.006,2.568-0.199,3.43-0.627c0.846-0.424,1.539-1.07,2.07-1.916
	c0.536-0.848,0.802-1.795,0.802-2.824C113.399,40.02,113.141,39.076,112.619,38.279 M105.529,31.92h0.855
	c0.758,0,1.325,0.162,1.696,0.48c0.37,0.319,0.557,0.751,0.557,1.294c0,0.584-0.195,1.045-0.589,1.384
	c-0.389,0.338-0.99,0.506-1.797,0.506h-0.722V31.92z M109.138,42.476c-0.478,0.347-1.404,0.522-2.779,0.522h-0.83v-4.457h0.686
	c1.304,0,2.235,0.216,2.799,0.652c0.562,0.43,0.839,1.023,0.839,1.772C109.853,41.625,109.616,42.131,109.138,42.476"/>
<path d="M124.518,38.579c0.991-0.406,1.765-0.984,2.299-1.728c0.589-0.827,0.877-1.852,0.877-3.04c0-1.128-0.259-2.132-0.791-2.981
	c-0.523-0.838-1.227-1.459-2.099-1.825c-0.888-0.37-2.28-0.532-4.218-0.534h-3.799v17.973h3.898v-7.045l3.74,7.045h4.284
	L124.518,38.579z M123.6,35.148c-0.397,0.275-1.117,0.414-2.173,0.414h-1.035v-3.567h0.905c0.882,0,1.485,0.058,1.816,0.183
	c0.33,0.122,0.59,0.322,0.79,0.605c0.196,0.279,0.295,0.608,0.295,0.99C124.198,34.413,123.998,34.871,123.6,35.148"/>
<path d="M146.709,30.683c-1.846-1.851-4.093-2.802-6.658-2.802h-0.01c-1.701,0-3.301,0.431-4.766,1.286
	c-1.472,0.853-2.639,2.018-3.483,3.478c-0.844,1.461-1.263,3.073-1.263,4.808c0-0.002-0.002,0.008-0.002,0.023
	c0,2.574,0.919,4.841,2.715,6.715c1.8,1.885,4.106,2.843,6.813,2.84V47.03l0.024,0.001h0.009c2.59,0.001,4.838-0.932,6.655-2.768
	c1.823-1.828,2.751-4.114,2.749-6.753C149.494,34.845,148.554,32.538,146.709,30.683 M145.584,37.488
	c-0.002,1.631-0.535,2.982-1.613,4.092c-1.079,1.111-2.367,1.653-3.904,1.656c-1.355,0-2.545-0.423-3.594-1.277
	c-1.345-1.097-2.014-2.561-2.017-4.447c0.003-1.693,0.533-3.069,1.605-4.161c1.069-1.092,2.375-1.633,3.951-1.633
	c1.555,0,2.859,0.553,3.949,1.674C145.045,34.51,145.582,35.865,145.584,37.488"/>
<path d="M170.863,37.495c0-2.656-0.937-4.961-2.782-6.81c-1.834-1.852-4.083-2.804-6.643-2.804h-0.006c-0.006,0-0.018,0-0.041,0.004
	c-1.67-0.004-3.27,0.428-4.744,1.281c-1.473,0.854-2.635,2.02-3.479,3.479c-0.845,1.461-1.264,3.074-1.264,4.809
	c0-0.002-0.002,0.01-0.002,0.025c0,2.572,0.919,4.839,2.713,6.712c1.799,1.883,4.101,2.842,6.802,2.842h0.035
	c2.593,0,4.846-0.932,6.665-2.77c1.822-1.824,2.746-4.102,2.746-6.736v-0.001v-0.003h-0.002
	C170.863,37.503,170.863,37.495,170.863,37.495 M166.959,37.489c-0.002,1.63-0.536,2.98-1.611,4.092l-0.001-0.001
	c-1.083,1.111-2.368,1.654-3.903,1.654c-1.355,0-2.546-0.42-3.595-1.276c-1.347-1.095-2.016-2.56-2.018-4.447
	c0-1.692,0.534-3.069,1.6-4.16c1.072-1.091,2.382-1.631,3.954-1.633c1.557,0.002,2.863,0.555,3.951,1.674
	C166.419,34.511,166.957,35.866,166.959,37.489"/>
<polygon points="180.352,36.536 186.665,28.47 181.941,28.47 177.66,33.909 177.66,28.47 173.723,28.47 173.723,46.447 
	177.66,46.447 177.66,39.372 182.569,46.447 187.21,46.447 "/>
<polygon points="207.575,28.471 203.893,28.471 200.04,39.961 196.222,28.471 192.536,28.471 192.492,28.715 189.425,46.449 
	193.246,46.449 194.999,36.377 198.354,46.449 201.699,46.449 205.085,36.38 206.795,46.449 210.595,46.449 "/>
<path d="M222.773,28.47h-3.756l-0.072,0.187l-6.862,17.792h4.069l1.416-3.582h6.687l1.365,3.582h4.074L222.773,28.47z
	 M218.585,39.347l2.333-5.969l2.314,5.969H218.585z"/>
<polygon points="243.092,28.471 243.092,39.213 236.11,28.471 232.479,28.471 232.479,46.447 236.377,46.447 236.377,35.743 
	243.35,46.447 246.989,46.447 246.989,28.471 "/>
</svg>
